<svg xmlns="http://www.w3.org/2000/svg" width="23.908" height="17.652" viewBox="0 0 23.908 17.652">
  <path id="Icon_awesome-youtubehover" data-name="Icon awesome-youtubehover" d="M25.158,10.262a3.084,3.084,0,0,0-2.114-2.234C21.18,7.5,13.7,7.5,13.7,7.5s-7.476,0-9.341.528A3.084,3.084,0,0,0,2.25,10.262a34.711,34.711,0,0,0-.5,6.082,34.711,34.711,0,0,0,.5,6.082,3.035,3.035,0,0,0,2.114,2.2c1.864.528,9.341.528,9.341.528s7.476,0,9.341-.528a3.035,3.035,0,0,0,2.114-2.2,34.712,34.712,0,0,0,.5-6.082,34.712,34.712,0,0,0-.5-6.082Zm-13.9,9.815V12.611l6.249,3.733-6.249,3.733Z" transform="translate(-1.75 -7.5)" fill="#76ca77"/>
</svg>
