<svg id="instagramteamhover" xmlns="http://www.w3.org/2000/svg" width="24" height="24" viewBox="0 0 24 24">
  <rect id="Rectangle_4571" data-name="Rectangle 4571" width="24" height="24" opacity="0"/>
  <path id="instagram" d="M-1773.585-347a4.421,4.421,0,0,1-4.416-4.416v-7.169a4.421,4.421,0,0,1,4.416-4.415h7.17a4.42,4.42,0,0,1,4.416,4.415v7.169a4.42,4.42,0,0,1-4.416,4.416Zm-3-11.585v7.169a3,3,0,0,0,3,3h7.17a3,3,0,0,0,3-3v-7.169a3,3,0,0,0-3-3h-7.17A3,3,0,0,0-1776.581-358.584Zm2.458,3.585a4.128,4.128,0,0,1,4.123-4.123,4.127,4.127,0,0,1,4.123,4.123,4.127,4.127,0,0,1-4.123,4.123A4.128,4.128,0,0,1-1774.123-355Zm1.419,0a2.707,2.707,0,0,0,2.7,2.7,2.706,2.706,0,0,0,2.7-2.7,2.706,2.706,0,0,0-2.7-2.7A2.707,2.707,0,0,0-1772.7-355Zm6.264-3.549a1.048,1.048,0,0,1-.306-.736,1.044,1.044,0,0,1,.306-.736,1.043,1.043,0,0,1,.735-.3,1.042,1.042,0,0,1,.736.3,1.043,1.043,0,0,1,.3.736,1.047,1.047,0,0,1-.3.736,1.05,1.05,0,0,1-.736.3A1.048,1.048,0,0,1-1766.439-358.549Z" transform="translate(1782 367)" fill="#477399"/>
</svg>
