<svg xmlns="http://www.w3.org/2000/svg" width="15" height="15" viewBox="0 0 15 15">
  <path id="instagram" d="M4.14,15A4.144,4.144,0,0,1,0,10.86V4.14A4.144,4.144,0,0,1,4.14,0h6.721A4.144,4.144,0,0,1,15,4.14V10.86A4.144,4.144,0,0,1,10.861,15ZM1.331,4.14V10.86A2.811,2.811,0,0,0,4.14,13.669h6.721a2.811,2.811,0,0,0,2.808-2.809V4.14a2.812,2.812,0,0,0-2.808-2.809H4.14A2.812,2.812,0,0,0,1.331,4.14Zm2.3,3.36A3.865,3.865,0,1,1,7.5,11.365,3.87,3.87,0,0,1,3.635,7.5Zm1.331,0A2.534,2.534,0,1,0,7.5,4.966,2.538,2.538,0,0,0,4.966,7.5Zm5.872-3.327a.975.975,0,1,1,.689.286A.983.983,0,0,1,10.838,4.173Z" fill="#d3d6d7"/>
</svg>
