<svg xmlns="http://www.w3.org/2000/svg" width="18" height="18" viewBox="0 0 18 18">
  <path id="instagramhover" d="M4.967,0A4.973,4.973,0,0,0,0,4.967v8.065A4.973,4.973,0,0,0,4.967,18h8.066A4.973,4.973,0,0,0,18,13.033V4.967A4.973,4.973,0,0,0,13.033,0ZM1.6,13.033V4.967A3.373,3.373,0,0,1,4.967,1.6h8.066a3.374,3.374,0,0,1,3.37,3.37v8.065a3.374,3.374,0,0,1-3.37,3.37H4.967A3.374,3.374,0,0,1,1.6,13.033ZM4.362,9A4.638,4.638,0,1,0,9,4.362,4.643,4.643,0,0,0,4.362,9Zm1.6,0A3.041,3.041,0,1,1,9,12.041,3.045,3.045,0,0,1,5.959,9Zm7.047,3.993a1.17,1.17,0,1,0,.827-.343A1.179,1.179,0,0,0,13.006,12.993Z" fill="#249126"/>
</svg>
