<svg xmlns="http://www.w3.org/2000/svg" width="15.355" height="14.672" viewBox="0 0 15.355 14.672">
  <path id="LinkedIn" d="M15.355,18.554V24.23H12.064v-5.3c0-1.331-.476-2.239-1.667-2.239a1.8,1.8,0,0,0-1.689,1.2,2.252,2.252,0,0,0-.109.8V24.23H5.307s.044-8.971,0-9.9H8.6v1.4l-.022.032H8.6v-.032A3.269,3.269,0,0,1,11.565,14.1C13.731,14.1,15.355,15.513,15.355,18.554Zm-13.492-9a1.716,1.716,0,1,0-.044,3.422h.022a1.716,1.716,0,1,0,.022-3.422ZM.2,24.23H3.486v-9.9H.2Z" transform="translate(0 -9.558)" fill="#d3d6d7"/>
</svg>
