<svg xmlns="http://www.w3.org/2000/svg" width="18.323" height="17.509" viewBox="0 0 18.323 17.509">
  <path id="LinkedInhover" d="M18.323,20.293v6.774H14.4V20.746c0-1.588-.568-2.671-1.99-2.671a2.149,2.149,0,0,0-2.015,1.437,2.687,2.687,0,0,0-.13.958v6.6H6.333s.053-10.7,0-11.814h3.928v1.675c-.008.013-.018.026-.026.038h.026v-.038a3.9,3.9,0,0,1,3.54-1.952C16.386,14.975,18.323,16.664,18.323,20.293ZM2.223,9.558a2.047,2.047,0,1,0-.052,4.083H2.2a2.048,2.048,0,1,0,.026-4.083ZM.233,27.067H4.16V15.253H.233Z" transform="translate(0 -9.558)" fill="#249126"/>
</svg>
