<svg xmlns="http://www.w3.org/2000/svg" width="17.964" height="14.592" viewBox="0 0 17.964 14.592">
  <path id="twitter" d="M17.965,59.167a7.36,7.36,0,0,1-2.116.58,3.7,3.7,0,0,0,1.62-2.037,7.429,7.429,0,0,1-2.342.895,3.688,3.688,0,0,0-6.279,3.36,10.462,10.462,0,0,1-7.595-3.85,3.689,3.689,0,0,0,1.14,4.919,3.685,3.685,0,0,1-1.669-.462v.046A3.689,3.689,0,0,0,3.679,66.23a3.733,3.733,0,0,1-.971.129,3.538,3.538,0,0,1-.694-.068A3.687,3.687,0,0,0,5.456,68.85,7.393,7.393,0,0,1,.88,70.425,7.831,7.831,0,0,1,0,70.375,10.416,10.416,0,0,0,5.65,72.033,10.412,10.412,0,0,0,16.134,61.548l-.012-.477A7.359,7.359,0,0,0,17.965,59.167Z" transform="translate(-0.001 -57.441)" fill="#d3d6d7"/>
</svg>
