<svg xmlns="http://www.w3.org/2000/svg" width="21.974" height="17.849" viewBox="0 0 21.974 17.849">
  <path id="twitterhover" d="M21.975,59.553a9,9,0,0,1-2.588.71,4.527,4.527,0,0,0,1.981-2.492A9.087,9.087,0,0,1,18.5,58.865a4.511,4.511,0,0,0-7.681,4.11,12.8,12.8,0,0,1-9.291-4.71,4.513,4.513,0,0,0,1.4,6.017,4.508,4.508,0,0,1-2.042-.566v.056A4.512,4.512,0,0,0,4.5,68.193a4.566,4.566,0,0,1-1.188.158,4.328,4.328,0,0,1-.849-.084A4.51,4.51,0,0,0,6.674,71.4a9.044,9.044,0,0,1-5.6,1.927A9.579,9.579,0,0,1,0,73.262a12.742,12.742,0,0,0,6.91,2.028A12.737,12.737,0,0,0,19.736,62.465l-.015-.584A9,9,0,0,0,21.975,59.553Z" transform="translate(-0.001 -57.441)" fill="#249126"/>
</svg>
