<svg xmlns="http://www.w3.org/2000/svg" xmlns:xlink="http://www.w3.org/1999/xlink" width="70" height="60" viewBox="0 0 70 60">
  <defs>
    <linearGradient id="linear-gradient" x1="0.058" y1="0.156" x2="0.974" y2="0.939" gradientUnits="objectBoundingBox">
      <stop offset="0" stop-color="#fff" stop-opacity="0"/>
      <stop offset="1" stop-color="#91e2a8"/>
    </linearGradient>
  </defs>
  <g id="webicon" transform="translate(-0.264)">
    <g id="_045-website" data-name="045-website" transform="translate(2 2)">
      <path id="Path_1046" data-name="Path 1046" d="M53.421,57.61A14.189,14.189,0,0,1,46.1,51.251a15.82,15.82,0,0,0-28.1.568,14.63,14.63,0,0,1-7.6,7.067C5.513,60.867,1.41,65.395.108,72.474a6.507,6.507,0,0,0,0,2.352C2.128,85.812,10.889,90.657,18.863,89.372a14.645,14.645,0,0,1,12.3,3.873c6.731,6.3,17.52,8.269,27.994,1.521a14.5,14.5,0,0,0,3.66-3.682c9.025-14.153,2.34-28.88-9.392-33.473Z" transform="translate(0 -42.983)" fill="url(#linear-gradient)"/>
      <path id="Path_1047" data-name="Path 1047" d="M108.323,87.547v33.32a1.965,1.965,0,0,1-1.962,1.966h-48.4A1.965,1.965,0,0,1,56,120.867V87.547a1.965,1.965,0,0,1,1.962-1.966h48.4A1.965,1.965,0,0,1,108.323,87.547Z" transform="translate(-48.662 -79.998)" fill="#249126" opacity="0.1"/>
      <path id="Path_1048" data-name="Path 1048" d="M214.154,385.386H199.29l1.937-7.68,1.035-4.1h8.919l1.035,4.1Z" transform="translate(-173.222 -330.108)" fill="#fff"/>
      <path id="Path_1049" data-name="Path 1049" d="M108.323,108.518v33.32a1.965,1.965,0,0,1-1.962,1.966h-48.4A1.965,1.965,0,0,1,56,141.838v-33.32a1.965,1.965,0,0,1,1.962-1.966h48.4A1.965,1.965,0,0,1,108.323,108.518Z" transform="translate(-48.662 -98.221)" fill="#fff"/>
      <path id="Path_1050" data-name="Path 1050" d="M299.782,260.612v15.1a1.966,1.966,0,0,1-1.966,1.966h-21.6V261.005a.393.393,0,0,1,.393-.393Z" transform="translate(-240.121 -231.968)" fill="#fff"/>
      <path id="Path_1051" data-name="Path 1051" d="M108.323,112.868v-4.347a1.964,1.964,0,0,0-1.962-1.966h-48.4A1.964,1.964,0,0,0,56,108.521v4.347Z" transform="translate(-48.662 -98.224)" fill="#fff"/>
      <path id="Path_1052" data-name="Path 1052" d="M56,340.412v4.638a1.964,1.964,0,0,0,1.962,1.966h48.4a1.964,1.964,0,0,0,1.962-1.966v-4.638Z" transform="translate(-48.662 -301.301)" fill="#fff"/>
      <g id="Group_899" data-name="Group 899" transform="translate(6.684 7.676)">
        <path id="Path_1053" data-name="Path 1053" d="M89.738,126.9a.655.655,0,0,0,.655-.655v-.019a.655.655,0,0,0-1.311,0v.019A.655.655,0,0,0,89.738,126.9Z" transform="translate(-84.092 -122.421)" fill="#249126"/>
        <path id="Path_1054" data-name="Path 1054" d="M109.063,126.9a.655.655,0,0,0,.655-.655v-.019a.655.655,0,1,0-1.311,0v.019A.655.655,0,0,0,109.063,126.9Z" transform="translate(-100.885 -122.421)" fill="#249126"/>
        <path id="Path_1055" data-name="Path 1055" d="M128.387,126.9a.655.655,0,0,0,.655-.655v-.019a.655.655,0,0,0-1.311,0v.019A.655.655,0,0,0,128.387,126.9Z" transform="translate(-117.695 -122.421)" fill="#249126"/>
        <path id="Path_1056" data-name="Path 1056" d="M52.309,109.2h51.67a.656.656,0,0,0,.654-.658v-4.362a2.626,2.626,0,0,0-2.616-2.63h-48.4A2.626,2.626,0,0,0,51,104.185v33.436a2.626,2.626,0,0,0,2.616,2.63h28.71L84.4,148.5H71.238l1.361-5.423a.654.654,0,1,0-1.268-.322L69.889,148.5h-2a.658.658,0,0,0,0,1.315H87.75a.658.658,0,0,0,0-1.315h-2l-2.07-8.246h18.341a2.626,2.626,0,0,0,2.616-2.63V112.169a.654.654,0,1,0-1.308,0v20.14H52.309Zm1.308-6.335h48.4a1.313,1.313,0,0,1,1.308,1.315v3.7H52.309v-3.7A1.313,1.313,0,0,1,53.617,102.87Zm49.708,30.754v4a1.313,1.313,0,0,1-1.308,1.315h-48.4a1.313,1.313,0,0,1-1.308-1.315v-4Z" transform="translate(-51.001 -101.555)" fill="#249126"/>
      </g>
      <path id="Path_1057" data-name="Path 1057" d="M112.66,303.951H94.739a.656.656,0,1,1,0-1.313H112.66a.656.656,0,0,1,0,1.313Z" transform="translate(-81.779 -268.505)" fill="#249126"/>
      <path id="Path_1058" data-name="Path 1058" d="M112.66,284.851H94.739a.656.656,0,1,1,0-1.313H112.66a.656.656,0,1,1,0,1.313Z" transform="translate(-81.779 -251.916)" fill="#249126"/>
      <path id="Path_1059" data-name="Path 1059" d="M97.72,265.751h-2.98a.656.656,0,1,1,0-1.313h2.98a.656.656,0,1,1,0,1.313Z" transform="translate(-81.773 -235.327)" fill="#249126"/>
      <path id="Path_1060" data-name="Path 1060" d="M151.762,265.751H139.739a.656.656,0,1,1,0-1.313h12.023a.656.656,0,1,1,0,1.313Z" transform="translate(-120.889 -235.327)" fill="#249126"/>
      <path id="Path_1061" data-name="Path 1061" d="M100.865,232.786H94.739a.656.656,0,1,1,0-1.313h6.126a.656.656,0,1,1,0,1.313Z" transform="translate(-81.774 -206.695)" fill="#249126"/>
      <path id="Path_1062" data-name="Path 1062" d="M300.419,253.943h-2.1a.393.393,0,0,1-.393-.393v-7.977a.393.393,0,0,1,.393-.393h2.1a.393.393,0,0,1,.393.393v7.977A.393.393,0,0,1,300.419,253.943Z" transform="translate(-258.945 -218.588)" fill="#00d463"/>
      <path id="Path_1063" data-name="Path 1063" d="M267.706,274.11h-2.1a.393.393,0,0,1-.393-.393v-4.935a.393.393,0,0,1,.393-.393h2.1a.393.393,0,0,1,.393.393v4.935A.393.393,0,0,1,267.706,274.11Z" transform="translate(-230.512 -238.75)" fill="#00d463"/>
      <path id="Path_1064" data-name="Path 1064" d="M333.131,238.759h-2.1a.393.393,0,0,1-.393-.393V228.1a.393.393,0,0,1,.393-.393h2.1a.393.393,0,0,1,.393.393v10.267A.393.393,0,0,1,333.131,238.759Z" transform="translate(-287.376 -203.407)" fill="#00d463"/>
      <path id="Path_1065" data-name="Path 1065" d="M365.844,222.661h-2.1a.393.393,0,0,1-.393-.393V209.573a.393.393,0,0,1,.393-.393h2.1a.393.393,0,0,1,.393.393v12.695A.393.393,0,0,1,365.844,222.661Z" transform="translate(-315.809 -187.314)" fill="#00d463"/>
      <path id="Path_1066" data-name="Path 1066" d="M398.557,207.477h-2.1a.393.393,0,0,1-.393-.393V192.1a.393.393,0,0,1,.393-.393h2.1a.393.393,0,0,1,.393.393v14.985A.393.393,0,0,1,398.557,207.477Z" transform="translate(-344.241 -172.134)" fill="#00d463"/>
      <g id="Group_900" data-name="Group 900" transform="translate(11.9 18.341)">
        <path id="Path_1067" data-name="Path 1067" d="M94.568,186.53a.656.656,0,0,1-.575-.342l-.39-.718-.39.718a.655.655,0,0,1-1.2-.11l-.9-2.753a.655.655,0,1,1,1.246-.407l.427,1.308.24-.44a.655.655,0,0,1,1.151,0l.239.44.427-1.308a.655.655,0,1,1,1.246.407l-.9,2.753a.655.655,0,0,1-.563.449Z" transform="translate(-91.082 -182.466)" fill="#249126"/>
        <path id="Path_1068" data-name="Path 1068" d="M137.368,186.53a.655.655,0,0,1-.575-.342l-.391-.718-.391.718a.655.655,0,0,1-1.2-.11l-.9-2.753a.655.655,0,1,1,1.246-.407l.427,1.308.24-.44a.655.655,0,0,1,1.151,0l.239.44.427-1.308a.655.655,0,0,1,1.246.407l-.9,2.753a.655.655,0,0,1-.563.449C137.408,186.529,137.388,186.53,137.368,186.53Z" transform="translate(-128.273 -182.466)" fill="#249126"/>
        <path id="Path_1069" data-name="Path 1069" d="M180.17,186.53a.656.656,0,0,1-.575-.342l-.39-.718-.39.718a.655.655,0,0,1-1.2-.11l-.9-2.753a.655.655,0,1,1,1.246-.407l.427,1.308.24-.44a.655.655,0,0,1,1.151,0l.239.44.427-1.308a.655.655,0,1,1,1.246.407l-.9,2.753a.655.655,0,0,1-.563.449Z" transform="translate(-165.465 -182.466)" fill="#249126"/>
        <path id="Path_1070" data-name="Path 1070" d="M313.984,182.7a.733.733,0,1,1-.733.733A.733.733,0,0,1,313.984,182.7Z" transform="translate(-284.135 -182.673)" fill="#249126"/>
        <path id="Path_1071" data-name="Path 1071" d="M330.894,182.7a.733.733,0,1,1-.733.733A.733.733,0,0,1,330.894,182.7Z" transform="translate(-298.829 -182.673)" fill="#249126"/>
        <path id="Path_1072" data-name="Path 1072" d="M347.8,182.7a.733.733,0,1,1-.733.733A.733.733,0,0,1,347.8,182.7Z" transform="translate(-313.523 -182.673)" fill="#249126"/>
        <path id="Path_1073" data-name="Path 1073" d="M264.278,184.646a2.177,2.177,0,1,0-3.731,1.522,2.169,2.169,0,0,0-.623,1.522.655.655,0,1,0,1.311,0,.867.867,0,1,1,1.733,0,.655.655,0,1,0,1.311,0,2.169,2.169,0,0,0-.623-1.522A2.169,2.169,0,0,0,264.278,184.646Zm-2.177-.867a.867.867,0,1,1-.867.867A.868.868,0,0,1,262.1,183.779Z" transform="translate(-237.797 -182.469)" fill="#249126"/>
      </g>
      <path id="Path_1074" data-name="Path 1074" d="M120.146,421.494a.654.654,0,0,1-.463-.192l-1.444-1.444a.656.656,0,0,1,0-.927l1.444-1.444a.655.655,0,0,1,.927,0l1.444,1.444a.656.656,0,0,1,0,.927L120.61,421.3a.654.654,0,0,1-.463.192Zm-.517-2.1.517.517.517-.517-.517-.517Z" transform="translate(-102.601 -368.074)" fill="#00d463"/>
      <path id="Path_1075" data-name="Path 1075" d="M352.192,409.28a.654.654,0,0,1-.463-.192l-1.444-1.444a.656.656,0,0,1,0-.927l1.444-1.444a.655.655,0,0,1,.927,0l1.444,1.444a.656.656,0,0,1,0,.927l-1.444,1.444A.654.654,0,0,1,352.192,409.28Zm-.517-2.1.517.517.517-.517-.517-.517Z" transform="translate(-304.285 -357.461)" fill="#00d463"/>
      <path id="Path_1076" data-name="Path 1076" d="M416.064,436.494a.653.653,0,0,1-.463-.192l-1.444-1.444a.655.655,0,0,1,0-.927l1.444-1.444a.655.655,0,0,1,.927,0l1.444,1.444a.655.655,0,0,1,0,.927l-1.444,1.444A.653.653,0,0,1,416.064,436.494Zm-.517-2.1.517.517.517-.517-.517-.517Z" transform="translate(-359.813 -381.108)" fill="#00d463"/>
      <path id="Path_1077" data-name="Path 1077" d="M188.507,47.689a.655.655,0,0,1-.655-.655.79.79,0,0,0-.789-.789.655.655,0,0,1,0-1.311.79.79,0,0,0,.789-.789.655.655,0,1,1,1.311,0,.79.79,0,0,0,.789.789.655.655,0,0,1,0,1.311.79.79,0,0,0-.789.789A.655.655,0,0,1,188.507,47.689Z" transform="translate(-162.017 -43.424)" fill="#00d463"/>
    </g>
    <rect id="Rectangle_4588" data-name="Rectangle 4588" width="70" height="60" transform="translate(0.264)" fill="#fff" opacity="0"/>
  </g>
</svg>
